HIERARCHY
ROOT Hips
{
	OFFSET 0.00000 0.00000 0.00000
	CHANNELS 6 Xposition Yposition Zposition Zrotation Yrotation Xrotation 
	JOINT LHipJoint
	{
		OFFSET 0 0 0
		CHANNELS 3 Zrotation Yrotation Xrotation
		JOINT LeftUpLeg
		{
			OFFSET 1.56857 -1.73443 1.15205
			CHANNELS 3 Zrotation Yrotation Xrotation
			JOINT LeftLeg
			{
				OFFSET 2.39362 -6.57643 0.00000
				CHANNELS 3 Zrotation Yrotation Xrotation
				JOINT LeftFoot
				{
					OFFSET 2.50952 -6.89485 0.00000
					CHANNELS 3 Zrotation Yrotation Xrotation
					JOINT LeftToeBase
					{
						OFFSET 0.17171 -0.47178 1.88682
						CHANNELS 3 Zrotation Yrotation Xrotation
						End Site
						{
							OFFSET 0.00000 -0.00000 0.98146
						}
					}
				}
			}
		}
	}
	JOINT RHipJoint
	{
		OFFSET 0 0 0
		CHANNELS 3 Zrotation Yrotation Xrotation
		JOINT RightUpLeg
		{
			OFFSET -1.28153 -1.73443 1.15205
			CHANNELS 3 Zrotation Yrotation Xrotation
			JOINT RightLeg
			{
				OFFSET -2.26861 -6.23296 0.00000
				CHANNELS 3 Zrotation Yrotation Xrotation
				JOINT RightFoot
				{
					OFFSET -2.54143 -6.98254 0.00000
					CHANNELS 3 Zrotation Yrotation Xrotation
					JOINT RightToeBase
					{
						OFFSET -0.23309 -0.64041 1.93119
						CHANNELS 3 Zrotation Yrotation Xrotation
						End Site
						{
							OFFSET -0.00000 -0.00000 1.02013
						}
					}
				}
			}
		}
	}
	JOINT LowerBack
	{
		OFFSET 0 0 0
		CHANNELS 3 Zrotation Yrotation Xrotation
		JOINT Spine
		{
			OFFSET -0.07096 2.10460 -0.27878
			CHANNELS 3 Zrotation Yrotation Xrotation
			JOINT Spine1
			{
				OFFSET -0.00826 2.13662 -0.08279
				CHANNELS 3 Zrotation Yrotation Xrotation
				JOINT Neck
				{
					OFFSET 0 0 0
					CHANNELS 3 Zrotation Yrotation Xrotation
					JOINT Neck1
					{
						OFFSET 0.03239 1.77799 0.24435
						CHANNELS 3 Zrotation Yrotation Xrotation
						JOINT Head
						{
							OFFSET 0.01026 1.74194 -0.49664
							CHANNELS 3 Zrotation Yrotation Xrotation
							End Site
							{
								OFFSET 0.00170 1.83057 -0.19653
							}
						}
					}
				}
				JOINT LeftShoulder
				{
					OFFSET 0 0 0
					CHANNELS 3 Zrotation Yrotation Xrotation
					JOINT LeftArm
					{
						OFFSET 3.19178 1.35907 -0.31412
						CHANNELS 3 Zrotation Yrotation Xrotation
						JOINT LeftForeArm
						{
							OFFSET 4.85247 -0.00000 -0.00000
							CHANNELS 3 Zrotation Yrotation Xrotation
							JOINT LeftHand
							{
								OFFSET 3.55584 -0.00000 0.00000
								CHANNELS 3 Zrotation Yrotation Xrotation
								JOINT LeftFingerBase
								{
									OFFSET 0 0 0
									CHANNELS 3 Zrotation Yrotation Xrotation
									JOINT LeftHandIndex1
									{
										OFFSET 0.69320 -0.00000 0.00000
										CHANNELS 3 Zrotation Yrotation Xrotation
										End Site
										{
											OFFSET 0.55888 -0.00000 0.00000
										}
									}
								}
								JOINT LThumb
								{
									OFFSET 0 0 0
									CHANNELS 3 Zrotation Yrotation Xrotation
									End Site
									{
										OFFSET 0.56741 -0.00000 0.56741
									}
								}
							}
						}
					}
				}
				JOINT RightShoulder
				{
					OFFSET 0 0 0
					CHANNELS 3 Zrotation Yrotation Xrotation
					JOINT RightArm
					{
						OFFSET -3.28999 1.24191 -0.26899
						CHANNELS 3 Zrotation Yrotation Xrotation
						JOINT RightForeArm
						{
							OFFSET -4.64462 -0.00000 0.00000
							CHANNELS 3 Zrotation Yrotation Xrotation
							JOINT RightHand
							{
								OFFSET -3.40703 -0.00000 0.00000
								CHANNELS 3 Zrotation Yrotation Xrotation
								JOINT RightFingerBase
								{
									OFFSET 0 0 0
									CHANNELS 3 Zrotation Yrotation Xrotation
									JOINT RightHandIndex1
									{
										OFFSET -0.61958 -0.00000 0.00000
										CHANNELS 3 Zrotation Yrotation Xrotation
										End Site
										{
											OFFSET -0.49952 -0.00000 0.00000
										}
									}
								}
								JOINT RThumb
								{
									OFFSET 0 0 0
									CHANNELS 3 Zrotation Yrotation Xrotation
									End Site
									{
										OFFSET -0.50715 -0.00000 0.50715
									}
								}
							}
						}
					}
				}
			}
		}
	}
}
MOTION
Frames: 10
Frame Time: .0083333
16.4659 16.7224 0.4078 596.6640 88.9057 592.3960 0.0000 0.0000 0.0000 -15.6012 5.7425 8.3088 8.3042 16.3385 53.6513 0.0032 2.2212 1.7850 0.0016 -0.2593 -0.7125 0.0000 0.0000 0.0000 22.0663 4.6245 -9.4681 -1.5867 -7.9462 22.5509 -0.5932 0.1624 -14.4993 -0.6067 -4.9856 13.8676 -0.3442 -0.1158 8.8416 1.9696 -0.0388 2.8411 2.2315 0.0159 -2.0112 3.9592 2.8145 -23.6407 -2.3632 3.1949 21.4266 -0.9917 1.5058 10.9323 0.0000 -0.0000 0.0000 -88.0333 0.8357 36.2549 12.4743 -20.5121 -2.2657 -0.0000 -0.0000 15.8979 14.6105 -25.6108 -6.4289 -7.1250 0.0000 -0.0000 -9.1397 3.9135 8.6068 0.0000 -0.0000 0.0000 84.6395 -5.3728 28.3463 -14.3826 23.2790 -2.9776 0.0000 0.0000 10.5582 -8.8421 -32.0575 4.7200 7.1250 -0.0000 -0.0000 26.7845 -60.3042 -10.4379
16.6228 16.7527 0.4198 613.6640 88.1626 609.3910 0.0000 0.0000 0.0000 -14.5088 5.5023 6.5181 8.8463 16.7078 55.5570 0.0008 1.8345 1.3567 0.0027 -0.3373 -0.9269 0.0000 0.0000 0.0000 23.1973 4.2312 -8.5228 -1.5030 -7.7434 21.9373 -0.6233 0.4353 -14.7747 -0.6592 -5.1929 14.4594 0.5957 -0.0498 8.8279 2.1243 0.1391 2.8606 1.8433 0.1072 -1.9899 3.8118 2.6277 -23.4516 -2.1336 2.9328 21.3407 -0.9280 1.4058 10.8499 0.0000 -0.0000 0.0000 -88.1022 1.1198 35.0191 11.6848 -19.3303 -1.9967 -0.0000 -0.0000 18.5610 12.8065 -25.4179 -5.5725 -7.1250 0.0000 -0.0000 -10.2217 4.3483 9.5738 0.0000 -0.0000 0.0000 84.5331 -4.3860 29.0510 -14.5149 23.4660 -3.0301 0.0000 0.0000 10.0072 -9.3403 -31.8635 4.9624 7.1250 -0.0000 -0.0000 26.1005 -60.2501 -10.1151
16.7778 16.7833 0.4280 621.7940 87.5601 617.4470 0.0000 0.0000 0.0000 -13.6708 5.3277 4.8758 9.2979 16.9957 57.1149 -0.0020 1.9184 1.1590 0.0001 -0.0601 -0.1652 0.0000 0.0000 0.0000 24.0734 3.7803 -7.4729 -1.4047 -7.4969 21.1960 -0.6495 0.7474 -14.9887 -0.6905 -5.3121 14.8010 1.3623 0.0582 8.9257 2.2324 0.3594 2.8922 1.5006 0.2200 -2.0138 3.8250 2.4753 -23.4124 -2.1863 2.7335 21.3899 -0.9817 1.3107 10.8552 -0.0000 -0.0000 0.0000 -88.2223 1.3926 33.4163 10.9401 -18.1964 -1.7572 -0.0000 -0.0000 21.7640 11.2165 -25.3051 -4.8450 -7.1250 0.0000 -0.0000 -11.1797 4.6576 10.4397 -0.0000 -0.0000 0.0000 84.4406 -3.4965 29.4571 -14.7525 23.8002 -3.1254 0.0000 0.0000 9.7304 -9.7309 -31.5362 5.1254 7.1250 -0.0000 -0.0000 25.4128 -60.0505 -9.7054
16.9332 16.8130 0.4355 620.0240 87.4993 615.5740 0.0000 0.0000 0.0000 -13.6313 4.9108 3.3070 9.7420 17.2622 58.6227 -0.0093 2.2023 0.6750 0.0210 0.9352 2.5706 0.0000 0.0000 0.0000 24.1059 3.0179 -6.4777 -1.3028 -7.2309 20.4013 -0.6679 1.0806 -15.1084 -0.6860 -5.2953 14.7528 1.4752 0.1332 9.0546 2.2007 0.4727 2.8988 1.3920 0.2770 -2.0789 3.8542 2.3778 -23.5019 -2.2894 2.6178 21.5841 -1.0424 1.2484 10.9418 0.0000 0.0000 0.0000 -88.3324 1.8058 31.6864 10.2854 -17.1848 -1.5582 -0.0000 -0.0000 24.8491 9.8632 -25.4146 -4.2674 -7.1250 0.0000 -0.0000 -12.0015 4.7068 11.2305 0.0000 0.0000 0.0000 84.3124 -2.6605 29.8051 -15.0375 24.1983 -3.2413 0.0000 0.0000 9.4650 -10.1178 -31.3982 5.3114 7.1250 -0.0000 -0.0000 24.8958 -60.0173 -9.4729
17.0874 16.8454 0.4432 618.9160 87.4567 614.4110 0.0000 0.0000 0.0000 -13.6093 4.5813 1.6167 10.1654 17.5018 60.0398 -0.0123 2.1355 0.1003 0.0217 0.9518 2.6161 0.0000 0.0000 0.0000 24.1247 2.3363 -5.5132 -1.2075 -6.9712 19.6300 -0.6779 1.3864 -15.1430 -0.7168 -5.4105 15.0831 1.5795 0.2418 9.1293 2.1491 0.6268 2.8723 1.2631 0.3533 -2.1479 3.5485 2.2204 -23.4785 -1.9023 2.4087 21.6621 -0.8850 1.1791 10.9494 -0.0000 0.0000 0.0000 -88.3950 2.3043 29.8997 9.7549 -16.3552 -1.4051 -0.0000 -0.0000 27.7789 8.6616 -25.5439 -3.7582 -7.1250 0.0000 -0.0000 -12.7288 4.7119 11.9448 -0.0000 0.0000 0.0000 84.1451 -1.9022 30.3487 -15.3459 24.6257 -3.3687 0.0000 0.0000 8.9561 -10.5321 -31.5751 5.5602 7.1250 -0.0000 -0.0000 24.6192 -60.2728 -9.5110
17.2386 16.8782 0.4488 623.4650 87.3888 618.9440 0.0000 0.0000 0.0000 -13.4537 4.4640 -0.1638 10.5370 17.7010 61.2685 -0.0110 1.9030 -0.2508 0.0112 0.6836 1.8785 0.0000 0.0000 0.0000 24.2795 1.9290 -4.5825 -1.1285 -6.7472 18.9685 -0.6792 1.6567 -15.0921 -0.6555 -5.1786 14.4186 1.7766 0.4192 9.1153 2.1115 0.8781 2.8636 1.0863 0.4782 -2.1485 3.1704 2.0114 -23.0970 -1.4394 2.1413 21.4643 -0.6996 1.0876 10.7870 -0.0000 -0.0000 0.0000 -88.5262 2.7139 27.6815 9.2763 -15.5998 -1.2734 -0.0000 -0.0000 31.1238 7.5420 -25.4780 -3.2597 -7.1250 0.0000 -0.0000 -13.3994 4.8922 12.5637 -0.0000 -0.0000 0.0000 83.9773 -1.1763 30.8541 -15.7165 25.1348 -3.5247 0.0000 0.0000 8.4690 -10.8892 -31.6815 5.7693 7.1250 -0.0000 -0.0000 24.3404 -60.4528 -9.5006
17.3885 16.9099 0.4553 627.9490 87.4305 623.3730 0.0000 0.0000 0.0000 -13.3965 4.3470 -1.8393 10.8397 17.8558 62.2600 -0.0105 1.8770 -0.1861 0.0463 1.3889 3.8196 0.0000 0.0000 0.0000 24.2949 1.5468 -3.5968 -1.0491 -6.5133 18.2814 -0.6935 1.9380 -15.1908 -0.5605 -4.7953 13.3257 1.8035 0.5987 9.1225 2.0575 1.1166 2.9176 0.9899 0.5978 -2.0966 3.1641 1.8618 -22.7109 -1.4386 1.9453 21.2113 -0.7314 0.9990 10.6176 0.0000 0.0000 0.0000 -88.6292 2.9546 25.3136 8.7697 -14.7926 -1.1406 -0.0000 -0.0000 34.6606 6.6141 -25.4936 -2.8571 -7.1250 0.0000 -0.0000 -13.9554 4.9682 13.0974 0.0000 0.0000 0.0000 83.8113 -0.3099 31.2191 -16.0607 25.6029 -3.6722 0.0000 0.0000 8.2950 -11.1129 -31.7284 5.8977 7.1250 -0.0000 -0.0000 24.1480 -60.5480 -9.4753
17.5434 16.9413 0.4630 630.6480 87.4317 625.9480 0.0000 0.0000 0.0000 -13.3091 4.1661 -3.2723 11.0227 17.9462 62.8552 -0.0006 0.8622 -1.1096 0.0282 1.0831 2.9775 0.0000 0.0000 0.0000 24.3347 1.0319 -2.4778 -0.9567 -6.2283 17.4482 -0.7130 2.2128 -15.3527 -0.4877 -4.4778 12.4249 1.8529 0.7457 9.2081 1.9837 1.3168 2.9869 0.8638 0.6987 -2.0701 3.2831 1.7808 -22.7141 -1.5649 1.8257 21.2710 -0.8153 0.9392 10.6396 0.0000 0.0000 0.0000 -88.5722 3.2852 23.1240 8.3119 -14.0572 -1.0266 -0.0000 -0.0000 38.0615 6.1893 -25.7883 -2.7012 -7.1250 0.0000 -0.0000 -14.2123 4.7225 13.4222 0.0000 0.0000 0.0000 83.6904 0.5996 31.6001 -16.3286 25.9642 -3.7887 0.0000 0.0000 7.9465 -11.8457 -31.4928 6.2528 7.1250 -0.0000 -0.0000 23.1814 -60.5089 -9.0495
17.6955 16.9692 0.4702 633.5770 87.5935 628.7560 0.0000 0.0000 0.0000 -13.4391 3.9668 -4.6929 11.1380 18.0020 63.2289 0.0058 0.3779 -1.6302 0.0477 1.4091 3.8752 0.0000 0.0000 0.0000 24.1660 0.5256 -1.4370 -0.8825 -5.9886 16.7513 -0.7330 2.5140 -15.5168 -0.4025 -4.0729 11.2818 1.7465 0.8886 9.3114 1.8404 1.4946 3.0387 0.7550 0.7875 -2.0727 3.3558 1.7402 -23.0059 -1.6171 1.7549 21.6286 -0.8564 0.9082 10.8245 -0.0000 0.0000 0.0000 -88.4093 3.8346 21.4568 8.0614 -13.6524 -0.9666 -0.0000 -0.0000 40.4394 6.0561 -25.9043 -2.6537 -7.1250 0.0000 -0.0000 -14.2928 4.6225 13.5311 -0.0000 0.0000 0.0000 83.6046 1.5040 31.9597 -16.5662 26.2823 -3.8933 0.0000 0.0000 7.5326 -12.7361 -30.9756 6.6352 7.1250 -0.0000 -0.0000 21.8194 -60.2463 -8.3494
17.8420 16.9934 0.4825 639.5300 87.5161 634.5890 0.0000 0.0000 0.0000 -13.2196 3.9424 -6.2354 11.2450 18.0529 63.5747 0.0108 0.0355 -1.9760 0.0856 1.8872 5.1940 0.0000 0.0000 0.0000 24.3380 0.3154 -0.3745 -0.8215 -5.7830 16.1561 -0.7561 2.7109 -15.7322 -0.3975 -4.0478 11.2112 1.7813 1.0587 9.5041 1.7772 1.7277 3.0183 0.6403 0.9027 -2.1973 3.3299 1.6865 -22.8874 -1.4959 1.6672 21.7413 -0.8225 0.8847 10.8405 -0.0000 0.0000 0.0000 -88.2445 4.5912 20.4322 8.0162 -13.5792 -0.9559 -0.0000 -0.0000 41.4657 5.3691 -25.5099 -2.3178 -7.1250 0.0000 -0.0000 -14.6989 5.0673 13.8157 -0.0000 0.0000 0.0000 83.4712 2.3073 32.3888 -16.8431 26.6505 -4.0167 0.0000 0.0000 7.0981 -13.0866 -30.9447 6.8164 7.1250 -0.0000 -0.0000 21.4256 -60.3004 -8.2181
